<?xml version="1.0" standalone="no"?>
<!DOCTYPE svg PUBLIC "-//W3C//DTD SVG 20010904//EN"
 "http://www.w3.org/TR/2001/REC-SVG-20010904/DTD/svg10.dtd">
<svg version="1.0" xmlns="http://www.w3.org/2000/svg"
 width="500.000000pt" height="500.000000pt" viewBox="0 0 500.000000 500.000000"
 preserveAspectRatio="xMidYMid meet">
<metadata>
Created by potrace 1.16, written by Peter Selinger 2001-2019
</metadata>
<g transform="translate(0.000000,500.000000) scale(0.100000,-0.100000)"
fill="#000000" stroke="none">
<path d="M760 2500 l0 -480 1740 0 1740 0 0 480 0 480 -1740 0 -1740 0 0 -480z
m3450 0 l0 -450 -1715 0 -1715 0 0 450 0 450 1715 0 1715 0 0 -450z"/>
<path d="M850 2500 l0 -390 825 0 825 0 0 390 0 390 -825 0 -825 0 0 -390z
m520 125 c0 -12 -13 -15 -55 -15 l-55 0 0 -45 0 -45 50 0 c38 0 50 -4 50 -15
0 -11 -12 -15 -50 -15 l-50 0 0 -55 c0 -48 -2 -55 -20 -55 -19 0 -20 7 -20
130 l0 130 75 0 c60 0 75 -3 75 -15z m330 -83 l65 -94 3 96 c2 88 4 96 22 96
19 0 20 -7 20 -130 0 -166 -8 -168 -105 -31 l-70 100 -3 -100 c-2 -79 -6 -99
-17 -99 -12 0 -15 23 -15 131 0 162 6 164 100 31z m381 75 c22 -15 39 -38 49
-65 13 -37 13 -47 0 -84 -22 -61 -56 -82 -146 -86 l-74 -4 0 131 0 131 69 0
c54 0 75 -5 102 -23z"/>
<path d="M1950 2509 l0 -102 52 5 c67 7 98 39 98 103 0 58 -41 95 -106 95
l-44 0 0 -101z"/>
<path d="M4030 2637 c-71 -36 -61 -114 19 -143 61 -23 77 -37 58 -53 -15 -12
-47 -5 -47 10 0 5 -18 9 -41 9 -37 0 -40 -2 -34 -22 9 -31 42 -58 74 -60 86
-4 131 22 131 77 0 40 -31 69 -87 84 -26 7 -43 18 -43 27 0 22 28 28 49 10 15
-14 81 -24 81 -12 0 26 -26 60 -55 71 -42 18 -72 19 -105 2z"/>
<path d="M2570 2510 l0 -130 35 0 c34 0 35 1 35 40 l0 40 45 0 c43 0 45 1 45
30 0 29 -2 30 -45 30 -41 0 -45 2 -45 24 0 23 5 25 48 28 45 3 47 4 50 36 l3
32 -85 0 -86 0 0 -130z"/>
<path d="M2780 2510 l0 -130 40 0 c39 0 40 1 40 35 0 22 5 35 13 35 7 0 21
-16 30 -35 15 -31 21 -35 57 -35 22 0 40 2 40 5 0 3 -9 23 -19 43 -19 37 -19
38 0 61 19 23 25 74 13 106 -12 29 -60 45 -139 45 l-75 0 0 -130z"/>
<path d="M3050 2510 l0 -130 40 0 40 0 0 130 0 130 -40 0 -40 0 0 -130z"/>
<path d="M3180 2510 l0 -130 95 0 95 0 0 30 c0 30 -1 30 -55 30 -48 0 -55 2
-55 20 0 17 7 20 45 20 43 0 45 1 45 30 0 29 -2 30 -45 30 -38 0 -45 3 -45 20
0 17 7 20 50 20 49 0 50 1 50 30 l0 30 -90 0 -90 0 0 -130z"/>
<path d="M3410 2510 l0 -130 40 0 39 0 3 61 3 61 44 -61 c39 -54 48 -61 78
-61 l33 0 0 130 0 130 -40 0 -39 0 -3 -62 -3 -63 -45 62 c-39 54 -49 62 -77
63 l-33 0 0 -130z"/>
<path d="M3700 2510 l0 -130 70 0 c120 0 180 42 180 127 0 95 -49 133 -174
133 l-76 0 0 -130z"/>
</g>
</svg>
